<?xml version="1.0" standalone="no"?>
<!DOCTYPE svg PUBLIC "-//W3C//DTD SVG 20010904//EN"
 "http://www.w3.org/TR/2001/REC-SVG-20010904/DTD/svg10.dtd">
<svg version="1.0" xmlns="http://www.w3.org/2000/svg"
 width="512.000000pt" height="512.000000pt" viewBox="0 0 512.000000 512.000000"
 preserveAspectRatio="xMidYMid meet">

<g transform="translate(0.000000,512.000000) scale(0.100000,-0.100000)"
fill="#000000" stroke="none">
<path d="M2265 5088 c-386 -43 -796 -195 -1122 -414 -164 -110 -255 -185 -393 -324 -625 -624 -879 -1508 -684 -2377 82 -368 258 -731 501 -1033 85 -107 273 -296 377 -380 231 -186 539 -355 812 -445 95 -31 291 -81 357 -90 l47 -7 0 891 0 891 -325 0 -325 0 0 370 0 370 324 0 324 0 5 373 c4 326 7 383 24 462 50 223 152 399 298 515 124 99 283 166 455 191 108 15 455 5 630 -19 l125 -17 3 -311 2 -311 -212 -6 c-177 -4 -224 -9 -279 -26 -80 -25 -146 -74 -187 -138 -55 -85 -62 -136 -62 -440 l0 -273 348 0 c192 0 351 -2 353 -5 3 -2 -20 -168 -51 -367 l-55 -363 -298 -3 -297 -2 0 -890 0 -890 21 0 c11 0 70 11 130 25 885 199 1592 836 1877 1691 180 539 173 1148 -20 1679 -89 246 -248 527 -415 735 -422 525 -1046 867 -1715 939 -115 13 -459 12 -573 -1z"/>
</g>
</svg>
