<svg aria-hidden="true" version="1.1" xmlns="http://www.w3.org/2000/svg" xmlns:xlink="http://www.w3.org/1999/xlink">
  <!-- <defs> -->
    <symbol id="icon-smile" viewBox="0 0 24 24">
      <path d="M23 12c0-3.037-1.232-5.789-3.222-7.778s-4.741-3.222-7.778-3.222-5.789 1.232-7.778 3.222-3.222 4.741-3.222 7.778 1.232 5.789 3.222 7.778 4.741 3.222 7.778 3.222 5.789-1.232 7.778-3.222 3.222-4.741 3.222-7.778zM21 12c0 2.486-1.006 4.734-2.636 6.364s-3.878 2.636-6.364 2.636-4.734-1.006-6.364-2.636-2.636-3.878-2.636-6.364 1.006-4.734 2.636-6.364 3.878-2.636 6.364-2.636 4.734 1.006 6.364 2.636 2.636 3.878 2.636 6.364zM7.2 14.6c0 0 0.131 0.173 0.331 0.383 0.145 0.153 0.338 0.341 0.577 0.54 0.337 0.281 0.772 0.59 1.297 0.853 0.705 0.352 1.579 0.624 2.595 0.624s1.89-0.272 2.595-0.624c0.525-0.263 0.96-0.572 1.297-0.853 0.239-0.199 0.432-0.387 0.577-0.54 0.2-0.21 0.331-0.383 0.331-0.383 0.331-0.442 0.242-1.069-0.2-1.4s-1.069-0.242-1.4 0.2c-0.041 0.050-0.181 0.206-0.181 0.206-0.1 0.105-0.237 0.239-0.408 0.382-0.243 0.203-0.549 0.419-0.91 0.6-0.48 0.239-1.050 0.412-1.701 0.412s-1.221-0.173-1.701-0.413c-0.36-0.18-0.667-0.397-0.91-0.6-0.171-0.143-0.308-0.277-0.408-0.382-0.14-0.155-0.181-0.205-0.181-0.205-0.331-0.442-0.958-0.531-1.4-0.2s-0.531 0.958-0.2 1.4zM9 10c0.552 0 1-0.448 1-1s-0.448-1-1-1-1 0.448-1 1 0.448 1 1 1zM15 10c0.552 0 1-0.448 1-1s-0.448-1-1-1-1 0.448-1 1 0.448 1 1 1z"></path>
    </symbol>
    <symbol id="icon-github" viewBox="0 0 16 16">
      <path fill="rgb(0,0,0)" d="M8 0C3.58 0 0 3.58 0 8c0 3.54 2.29 6.53 5.47 7.59.4.07.55-.17.55-.38 0-.19-.01-.82-.01-1.49-2.01.37-2.53-.49-2.69-.94-.09-.23-.48-.94-.82-1.13-.28-.15-.68-.52-.01-.53.63-.01 1.08.58 1.23.82.72 1.21 1.87.87 2.33.66.07-.52.28-.87.51-1.07-1.78-.2-3.64-.89-3.64-3.95 0-.87.31-1.59.82-2.15-.08-.2-.36-1.02.08-2.12 0 0 .67-.21 2.2.82.64-.18 1.32-.27 2-.27.68 0 1.36.09 2 .27 1.53-1.04 2.2-.82 2.2-.82.44 1.1.16 1.92.08 2.12.51.56.82 1.27.82 2.15 0 3.07-1.87 3.75-3.65 3.95.29.25.54.73.54 1.48 0 1.07-.01 1.93-.01 2.2 0 .21.15.46.55.38A8.013 8.013 0 0016 8c0-4.42-3.58-8-8-8z"></path>
    </symbol>
    <g id="icon-user" fill="rgb(0,0,0)" viewBox="0 0 24 24" height="512" width="512">
      <path d="m12 3c-2.43414 0-4.40741 1.95716-4.40741 4.37143s1.97327 4.37147 4.40741 4.37147c2.4341 0 4.4074-1.9572 4.4074-4.37147s-1.9733-4.37143-4.4074-4.37143z"/>
      <path d="m14.601 13.6877c-1.7231-.2728-3.4789-.2728-5.20196 0l-.18469.0292c-2.42788.3843-4.21435 2.4614-4.21435 4.8999 0 1.3162 1.07576 2.3832 2.40278 2.3832h9.19442c1.327 0 2.4028-1.067 2.4028-2.3832 0-2.4385-1.7865-4.5156-4.2143-4.8999z"/>
    </g>
    <g id="icon-github" fill="rgb(0,0,0)"   viewBox="0 0 24 24"  height="512" width="512" transform="translate(0,512) scale(0.1,-0.1)">
      <path d="M2384 5060 c-1012 -69 -1891 -738 -2235 -1703 -53 -146 -102 -349 -125 -512 -23 -157 -25 -496 -5 -655 102 -816 575 -1526 1287 -1932 164 -94 418 -200 483 -202 51 -1 94 20 116 57 18 30 19 50 16 267 -1 129 -3 236 -4 236 -1 1 -38 -4 -82 -12 -263 -43 -497 16 -646 165 -58 58 -76 86 -134 206 -94 196 -149 271 -255 348 -78 56 -120 98 -120 119 0 50 121 67 217 30 125 -47 208 -119 299 -258 126 -191 284 -276 485 -261 77 6 233 49 245 68 3 6 13 38 20 71 19 80 68 181 110 228 40 45 44 42 -86 60 -103 14 -282 60 -368 94 -362 143 -571 410 -649 829 -25 134 -25 463 0 567 36 149 103 285 195 398 l43 53 -15 47 c-52 161 -46 370 16 564 20 61 24 67 54 73 107 20 352 -68 576 -206 l98 -61 87 20 c204 47 298 57 553 57 256 0 349 -10 553 -57 l88 -20 77 48 c153 96 304 167 407 193 85 21 159 31 191 25 28 -5 33 -12 52 -72 57 -178 67 -404 23 -542 l-21 -65 20 -25 c98 -121 175 -269 212 -409 26 -98 36 -348 19 -488 -74 -608 -407 -935 -1041 -1023 -120 -16 -118 -15 -83 -53 46 -48 90 -134 115 -223 20 -74 22 -106 27 -529 7 -492 5 -482 66 -507 47 -20 102 -13 200 26 348 135 622 311 884 569 417 410 679 942 752 1527 20 159 18 498 -5 655 -173 1219 -1151 2131 -2373 2215 -161 11 -175 11 -339 0z"/>
    </g>
    <g id="icon-fb" fill="rgb(0,0,0)"   viewBox="0 0 24 24"  height="512" width="512" transform="translate(0,100) scale(0.01,-0.01)">
    <path d="M2265 5088 c-386 -43 -796 -195 -1122 -414 -164 -110 -255 -185 -393 -324 -625 -624 -879 -1508 -684 -2377 82 -368 258 -731 501 -1033 85 -107 273 -296 377 -380 231 -186 539 -355 812 -445 95 -31 291 -81 357 -90 l47 -7 0 891 0 891 -325 0 -325 0 0 370 0 370 324 0 324 0 5 373 c4 326 7 383 24 462 50 223 152 399 298 515 124 99 283 166 455 191 108 15 455 5 630 -19 l125 -17 3 -311 2 -311 -212 -6 c-177 -4 -224 -9 -279 -26 -80 -25 -146 -74 -187 -138 -55 -85 -62 -136 -62 -440 l0 -273 348 0 c192 0 351 -2 353 -5 3 -2 -20 -168 -51 -367 l-55 -363 -298 -3 -297 -2 0 -890 0 -890 21 0 c11 0 70 11 130 25 885 199 1592 836 1877 1691 180 539 173 1148 -20 1679 -89 246 -248 527 -415 735 -422 525 -1046 867 -1715 939 -115 13 -459 12 -573 -1z"/>
    </g>
  <!-- </defs> -->
</svg>
