<?xml version="1.0" standalone="no"?>
<!DOCTYPE svg PUBLIC "-//W3C//DTD SVG 20010904//EN"
 "http://www.w3.org/TR/2001/REC-SVG-20010904/DTD/svg10.dtd">
<svg version="1.0" xmlns="http://www.w3.org/2000/svg"
 viewBox="0 0 64 64"
 >

<g
fill="#000000"  transform="translate(0,64) scale(0.1,-0.1)">
<path d="M348 536 c-60 -21 -84 -42 -107 -89 -27 -55 -27 -95 0 -158 l21 -49
28 42 c16 24 45 61 65 83 38 42 38 32 -1 -20 -57 -76 -132 -271 -112 -291 10
-9 38 9 38 25 0 33 31 137 59 196 34 74 104 160 176 219 49 40 52 44 32 50
-39 10 -161 5 -199 -8z"/>
<path d="M512 467 c-88 -71 -161 -187 -173 -277 -4 -24 -3 -25 51 -22 98 5
126 39 139 169 5 49 17 107 25 128 9 21 15 39 13 41 -1 2 -26 -16 -55 -39z"/>
<path d="M76 335 c-8 -30 8 -110 25 -132 8 -9 33 -25 56 -35 23 -10 45 -23 48
-28 12 -20 24 -9 35 29 18 67 6 83 -122 166 l-36 23 -6 -23z"/>
</g>
</svg>
