<svg xmlns="http://www.w3.org/2000/svg" class="ionicon">
  <defs>
		<symbol id="icon-menu" viewBox="0 0 512 512">
			<path fill="none" stroke="currentColor" stroke-linecap="round" stroke-miterlimit="10" stroke-width="32" d="M80 160h352M80 256h352M80 352h352"/>
		</symbol>
    <symbol id="icon-working" viewBox="0 0 512 512">
      <circle cx="256" cy="256" r="26"/>
      <circle cx="346" cy="256" r="26"/>
      <circle cx="166" cy="256" r="26"/>
      <path fill="none" stroke="currentColor" stroke-linecap="round" stroke-linejoin="round" stroke-width="32" d="M160 368L32 256l128-112M352 368l128-112-128-112"/>
    </symbol>
    <symbol id="icon-user" viewBox="0 0 512 512">
      <path d="M332.64 64.58C313.18 43.57 286 32 256 32c-30.16 0-57.43 11.5-76.8 32.38-19.58 21.11-29.12 49.8-26.88 80.78C156.76 206.28 203.27 256 256 256s99.16-49.71 103.67-110.82c2.27-30.7-7.33-59.33-27.03-80.6zM432 480H80a31 31 0 01-24.2-11.13c-6.5-7.77-9.12-18.38-7.18-29.11C57.06 392.94 83.4 353.61 124.8 326c36.78-24.51 83.37-38 131.2-38s94.42 13.5 131.2 38c41.4 27.6 67.74 66.93 76.18 113.75 1.94 10.73-.68 21.34-7.18 29.11A31 31 0 01432 480z"/>
    </symbol>
    <symbol id="icon-github" viewBox="0 0 512 512">
      <path d="M256 32C132.3 32 32 134.9 32 261.7c0 101.5 64.2 187.5 153.2 217.9a17.56 17.56 0 003.8.4c8.3 0 11.5-6.1 11.5-11.4 0-5.5-.2-19.9-.3-39.1a102.4 102.4 0 01-22.6 2.7c-43.1 0-52.9-33.5-52.9-33.5-10.2-26.5-24.9-33.6-24.9-33.6-19.5-13.7-.1-14.1 1.4-14.1h.1c22.5 2 34.3 23.8 34.3 23.8 11.2 19.6 26.2 25.1 39.6 25.1a63 63 0 0025.6-6c2-14.8 7.8-24.9 14.2-30.7-49.7-5.8-102-25.5-102-113.5 0-25.1 8.7-45.6 23-61.6-2.3-5.8-10-29.2 2.2-60.8a18.64 18.64 0 015-.5c8.1 0 26.4 3.1 56.6 24.1a208.21 208.21 0 01112.2 0c30.2-21 48.5-24.1 56.6-24.1a18.64 18.64 0 015 .5c12.2 31.6 4.5 55 2.2 60.8 14.3 16.1 23 36.6 23 61.6 0 88.2-52.4 107.6-102.3 113.3 8 7.1 15.2 21.1 15.2 42.5 0 30.7-.3 55.5-.3 63 0 5.4 3.1 11.5 11.4 11.5a19.35 19.35 0 004-.4C415.9 449.2 480 363.1 480 261.7 480 134.9 379.7 32 256 32z"/>
    </symbol>
    <symbol id="icon-fb" viewBox="0 0 512 512">
      <path d="M480 257.35c0-123.7-100.3-224-224-224s-224 100.3-224 224c0 111.8 81.9 204.47 189 221.29V322.12h-56.89v-64.77H221V208c0-56.13 33.45-87.16 84.61-87.16 24.51 0 50.15 4.38 50.15 4.38v55.13H327.5c-27.81 0-36.51 17.26-36.51 35v42h62.12l-9.92 64.77H291v156.54c107.1-16.81 189-109.48 189-221.31z" fill-rule="evenodd"/>
    </symbol>
    <symbol id="icon-linkedIn" viewBox="0 0 512 512">
      <path d="M444.17 32H70.28C49.85 32 32 46.7 32 66.89v374.72C32 461.91 49.85 480 70.28 480h373.78c20.54 0 35.94-18.21 35.94-38.39V66.89C480.12 46.7 464.6 32 444.17 32zm-273.3 373.43h-64.18V205.88h64.18zM141 175.54h-.46c-20.54 0-33.84-15.29-33.84-34.43 0-19.49 13.65-34.42 34.65-34.42s33.85 14.82 34.31 34.42c-.01 19.14-13.31 34.43-34.66 34.43zm264.43 229.89h-64.18V296.32c0-26.14-9.34-44-32.56-44-17.74 0-28.24 12-32.91 23.69-1.75 4.2-2.22 9.92-2.22 15.76v113.66h-64.18V205.88h64.18v27.77c9.34-13.3 23.93-32.44 57.88-32.44 42.13 0 74 27.77 74 87.64z"/>
    </symbol>
    <symbol id="icon-email" viewBox="0 0 512 512">
      <rect x="48" y="96" width="416" height="320" rx="40" ry="40" fill="none" stroke="currentColor" stroke-linecap="round" stroke-linejoin="round" stroke-width="32"/>
      <path fill="none" stroke="currentColor" stroke-linecap="round" stroke-linejoin="round" stroke-width="32" d="M112 160l144 112 144-112"/>
    </symbol>
				<symbol id="icon-wehelp" viewBox="0 0 64 64" fill="rgb(34,51,68)">
					<g transform="translate(0,64) scale(0.1,-0.1)">
						<path
							d="M348 536 c-60 -21 -84 -42 -107 -89 -27 -55 -27 -95 0 -158 l21 -49 28 42 c16 24 45 61 65 83 38 42 38 32 -1 -20 -57 -76 -132 -271 -112 -291 10 -9 38 9 38 25 0 33 31 137 59 196 34 74 104 160 176 219 49 40 52 44 32 50 -39 10 -161 5 -199 -8z"
						/>
						<path
							d="M512 467 c-88 -71 -161 -187 -173 -277 -4 -24 -3 -25 51 -22 98 5 126 39 139 169 5 49 17 107 25 128 9 21 15 39 13 41 -1 2 -26 -16 -55 -39z"
						/>
						<path
							d="M76 335 c-8 -30 8 -110 25 -132 8 -9 33 -25 56 -35 23 -10 45 -23 48 -28 12 -20 24 -9 35 29 18 67 6 83 -122 166 l-36 23 -6 -23z"
						/>
					</g>
				</symbol>
				<symbol id="icon-udemy" viewBox="0 0 213 80">
					<path
						d="M33.059 19.088L16.528 9.544 0 19.088V9.544L16.53 0l16.531 9.544v9.544h-.002z"
						fill="#A435F0"
					/>
					<path
						d="M0 27.101h8.659V48.14c0 5.437 4.058 8.085 7.872 8.085 3.842 0 7.872-2.72 7.872-8.157V27.1h8.658V48.64c0 5.008-1.573 8.872-4.722 11.52-3.15 2.648-7.086 3.936-11.88 3.936-4.795 0-8.731-1.288-11.808-3.936C1.573 57.512 0 53.792 0 48.853V27.101zM107.92 53.248c-2.621 2.333-5.608 3.477-9.013 3.477-6.208 0-10.376-3.538-10.846-9.018h27.979s.184-1.771.184-3.432c0-5.152-1.645-9.446-5.008-12.952-3.291-3.507-7.584-5.224-12.808-5.224-5.51 0-10.019 1.717-13.597 5.224-3.507 3.506-5.296 8.085-5.296 13.81v.286c0 5.653 1.789 10.16 5.296 13.525 3.506 3.363 8.157 5.08 13.81 5.08 6.574 0 11.806-2.592 15.731-7.064l-6.432-3.712zm-16.456-17.56c1.93-1.504 4.293-2.29 6.941-2.29 2.504 0 4.579.786 6.368 2.362 1.71 1.435 2.632 3.197 2.712 5.224H88.28c.277-2.093 1.336-3.859 3.184-5.296zM195.085 68.885C191.568 77.18 187.893 80 182.259 80h-3.904v-7.675h3.157c1.939 0 3.741-.728 5.459-4.693l1.717-3.965L173.875 27.1h8.802l10.52 26.334L204.003 27.1h8.802c-.002 0-14.101 33.248-17.72 41.784zM66.77 13.29v17.078c-2.837-2.544-7.25-4.056-11.52-4.056-5.08 0-9.373 1.79-12.88 5.437-3.434 3.579-5.151 8.014-5.151 13.382s1.717 9.802 5.152 13.453c3.506 3.579 7.8 5.368 12.88 5.368 5.861 0 9.562-2.301 11.52-4.107v3.32h8.586V13.291h-8.586zm-2.575 39.715c-2.075 2.075-4.723 3.15-7.8 3.15-3.078 0-5.582-1.075-7.656-3.15-2.003-2.074-3.006-4.722-3.006-7.872 0-3.149 1.003-5.797 3.006-7.872 2.074-2.074 4.578-3.149 7.656-3.149 3.077 0 5.725 1.075 7.8 3.15 2.146 2.074 3.221 4.722 3.221 7.871 0 3.15-1.075 5.798-3.221 7.872zM160.525 26.387c-6.522 0-9.914 2.706-12.237 5.312-.928-1.771-3.544-5.312-9.659-5.312-5.165 0-8.213 2.61-9.73 4.472v-3.755h-8.515v36.064h8.515V42.416c0-4.867 3.005-8.373 7.013-8.373 4.08 0 6.44 3.077 6.44 8.013v21.11h8.515V42.412c0-4.938 2.933-8.373 7.154-8.373 4.08 0 6.44 3.077 6.44 8.013v21.11h8.587V40.837c0-9.402-5.053-14.45-12.523-14.45z"
						fill="#fff"
					/>
				</symbol>
				<symbol
					id="icon-udacity"
					viewBox="0 0 144 27"
					stroke-width="1"
					fill-rule="evenodd"
				>
					<g
						id="Global-Top-Nav-Desktop"
						transform="translate(-133.000000, -34.000000)"
					>
						<g id="New-Logo" transform="translate(133.000000, 34.000000)">
							<g id="Group-3" transform="translate(0.000054, 0.000000)">
								<mask id="mask-2" fill="white">
									<use xlink:href="#path-1"></use>
								</mask>
								<g id="Clip-2"></g>
								<path
									d="M2.07617019,6.30570998 L8.91087231,2.3349538 L8.9149924,13.4701297 C8.90227385,17.5970181 11.7976266,21.2990483 15.7993148,22.2729569 L15.8888821,22.2947262 L15.8317382,22.3668147 C15.7410961,22.4856537 15.6540366,22.599318 15.546735,22.7058448 C15.1845248,23.0643245 14.7859503,23.3897934 14.3624761,23.6729728 C13.9355983,23.9582934 13.4797007,24.2032872 13.0071436,24.4006384 L13.0071436,24.4008168 C12.5256297,24.6017368 12.0224406,24.7555494 11.5120861,24.8579722 C10.9734283,24.9659265 10.5076783,25.0146398 10.0089675,25.0146398 C9.99302452,25.0146398 9.97672327,25.0146398 9.96060115,25.0146398 C9.41764413,25.0126769 8.8766576,24.9568262 8.35286798,24.8481581 C7.84305087,24.7428804 7.34093654,24.5858559 6.8604975,24.3817241 C6.39026913,24.1820532 5.93562548,23.9345612 5.50946423,23.6460288 C5.08706481,23.3596376 4.69081904,23.031849 4.33165413,22.6715849 C3.97105615,22.3104286 3.64413548,21.913585 3.36056538,21.4922955 C3.07395,21.0669019 2.82817731,20.61278 2.63005442,20.142242 C2.42870712,19.6645664 2.27429308,19.1635156 2.17111154,18.6530077 C2.05968981,18.1023514 2.04625471,17.5334946 2.04786692,17.0497522 L2.04679212,6.32283992 L2.07617019,6.30570998 Z M19.2725559,20.3383441 C19.6677268,19.2270391 19.8697907,18.1396447 19.8730151,17.1066735 L19.8730151,5.34679012 L25.0543047,2.38313177 L25.0543047,13.5195567 C25.0528716,14.0245331 25.0057592,14.5029224 24.9144006,14.940985 C24.8201758,15.3929656 24.6802716,15.8367382 24.4989874,16.2599905 C24.3202111,16.6771759 24.0995172,17.0790158 23.8431756,17.4542686 C23.5888044,17.8270233 23.296815,18.1774733 22.9752684,18.4959832 C22.6531843,18.8146715 22.2995726,19.1035608 21.9241064,19.3542646 C21.5461324,19.6072882 21.1409299,19.8248027 20.7196053,20.0007415 C20.2945188,20.1836393 19.8980939,20.3049764 19.3947257,20.4059717 C19.3777079,20.409362 19.3585405,20.4127523 19.3386565,20.4161426 L19.2388786,20.4336294 L19.2725559,20.3383441 Z M0,5.22920021 L0.00483663462,17.0442206 C-0.01164375,22.517237 4.44486721,26.983334 9.93892587,27.0001071 L9.96902048,27.0001071 C11.7146873,27.0001071 13.4324091,26.5436655 14.9364234,25.6809231 L22.2031982,21.5215591 C25.2160633,19.9646973 27.0926775,16.9009358 27.1028882,13.5249098 L27.103963,1.18510647 C27.103963,1.1499544 27.0849747,1.11712201 27.0545218,1.09945676 L27.0545218,1.09927832 L25.2744612,0.0623815377 C25.2440083,0.0445378484 25.2058526,0.0445378484 25.1750414,0.0616677902 L17.8742311,4.1660732 C17.8428825,4.18356001 17.823536,4.21674928 17.823536,4.25261509 L17.8298057,17.0984654 C17.8283726,17.6385939 17.7723035,18.1774733 17.6630313,18.7002934 C17.5569837,19.2088386 17.3997035,19.7088187 17.1951317,20.1866727 C17.1567969,20.2757128 17.1168499,20.3642175 17.0752907,20.45183 L17.0568398,20.4907292 L17.0140266,20.4851977 C16.8906029,20.4691383 16.8092758,20.4539712 16.5921646,20.4132876 L16.5346624,20.402403 C16.07769,20.3087236 15.1472648,20.0449939 14.0382424,19.3312463 C13.6625971,19.0767953 13.3105976,18.7857647 12.9913797,18.4654705 C12.6712662,18.1448194 12.3812472,17.792585 12.1295631,17.4187597 C11.8748337,17.0406519 11.6566477,16.6375629 11.4810958,16.2205559 C11.3023194,15.7960546 11.1654606,15.3512114 11.0739228,14.8992307 C10.9922374,14.4956065 10.9582018,14.0769935 10.9601723,13.4997502 L10.9601723,1.17547088 C10.9601723,1.14049724 10.9422588,1.10855704 10.9121642,1.09017804 L9.13407404,0.0143820136 C9.11813106,0.00474642135 9.1002176,-7.13747572e-05 9.082125,-7.13747572e-05 C9.06510721,-7.13747572e-05 9.04791029,0.00438954756 9.03268385,0.0131329553 L0.0499785577,5.14301519 C0.0193465385,5.16068044 0,5.19369126 0,5.22920021 L0,5.22920021 Z"
									id="Fill-1"
									fill="#2015FF"
									mask="url(#mask-2)"
								></path>
							</g>
							<path
								d="M49.6914945,14.9761906 C49.6914945,17.0539098 47.9132251,18.6814326 45.6430522,18.6814326 C43.3649973,18.6814326 41.646738,17.0885265 41.646738,14.9761906 L41.646738,6.622489 L39.6017373,6.622489 L39.6017373,14.9949264 C39.6017373,18.2166045 42.1424035,20.5548416 45.6430522,20.5548416 C49.1741537,20.5548416 51.7370326,18.2166045 51.7370326,14.9949264 L51.7384657,6.6176712 L49.6914945,6.6176712 L49.6914945,14.9761906 Z"
								id="Fill-4"
								fill="#fff"
							></path>
							<path
								d="M67.3051921,13.4956283 C67.3051921,16.640757 65.4429087,18.5184484 62.3238168,18.5184484 L59.9187554,18.5116678 L59.9187554,8.48922439 L62.3238168,8.48922439 C65.4429087,8.48922439 67.3051921,10.3606705 67.3051921,13.4956283 M62.4540476,6.62420199 L57.9043867,6.61724295 L57.8717842,6.61724295 L57.8717842,20.3822217 L62.4268192,20.3822217 C66.626272,20.3822217 69.3399822,17.6790812 69.3399822,13.4956283 C69.3399822,9.3216325 66.6371992,6.62455886 62.4540476,6.62420199"
								id="Fill-6"
								fill="#fff"
							></path>
							<polygon
								id="Fill-8"
								fill="#fff"
								points="141.025822 6.61761767 137.016968 12.3980808 132.978558 6.63153575 132.968526 6.61761767 130.664676 6.61761767 135.997155 14.5200523 135.997155 20.3822396 138.044126 20.3822396 138.044126 14.5188033 143.27414 6.66811531 143.307639 6.61761767"
							></polygon>
							<polygon
								id="Fill-10"
								fill="#fff"
								points="115.745449 8.48920655 120.454003 8.48920655 120.454003 20.3822039 122.499541 20.3816686 122.500974 8.48920655 127.209348 8.48920655 127.209348 6.61758198 115.745449 6.61758198"
							></polygon>
							<mask id="mask-4" fill="white">
								<use xlink:href="#path-3"></use>
							</mask>
							<g id="Clip-13"></g>
							<polygon
								id="Fill-12"
								fill="#fff"
								mask="url(#mask-4)"
								points="108.255706 20.3808835 110.302677 20.3808835 110.302677 6.6189381 108.255706 6.6189381"
							></polygon>
							<path
								d="M100.674962,17.0568896 C100.659914,17.0731274 99.13727,18.6763829 96.7121456,18.6763829 C93.8895214,18.6763829 91.7608648,16.409699 91.7608648,13.4035727 C91.7608648,10.5136088 93.8735785,8.33418058 96.6750647,8.33418058 C98.9472082,8.33418058 100.381181,9.66210793 100.395512,9.6754907 L100.68553,9.95028352 L101.775923,8.45498235 L101.578875,8.24460526 C101.510625,8.17126769 99.8688558,6.4504223 96.638163,6.4504223 C92.6975597,6.4504223 89.7260747,9.44762679 89.7260747,13.4223086 C89.7260747,17.4915619 92.7215637,20.5601412 96.6938738,20.5601412 C100.019329,20.5601412 101.860833,18.5143622 101.937681,18.427285 L102.133834,18.2049526 L100.949037,16.7610413 L100.674962,17.0568896 Z"
								id="Fill-14"
								fill="#fff"
								mask="url(#mask-4)"
							></path>
							<path
								d="M81.3460141,14.2516476 L77.2757174,15.0803085 L79.4797897,9.67367065 L81.3460141,14.2516476 Z M80.4179176,6.62400571 L78.5418408,6.62400571 L72.9533782,20.3863079 L75.1130251,20.3863079 L76.3506662,17.3498473 L82.1295489,16.1734129 L83.8384931,20.3659661 L83.8467333,20.3863079 L86.0063802,20.3863079 L80.4261578,6.64434752 L80.4179176,6.62400571 Z"
								id="Fill-15"
								fill="#fff"
								mask="url(#mask-4)"
							></path>
						</g>
					</g>
				</symbol>
  </defs>
</svg>